<svg width="128" height="128" viewBox="0 0 128 128" fill="none" xmlns="http://www.w3.org/2000/svg">
<rect width="128" height="128" rx="30" fill="#D9D9D9"/>
<g filter="url(#filter0_d_9_16)">
<path d="M22.5614 99V29.1818H51.6751C56.9023 29.1818 61.2773 29.9205 64.8001 31.3977C68.3455 32.875 71.0046 34.9432 72.7773 37.6023C74.5728 40.2614 75.4705 43.3409 75.4705 46.8409C75.4705 49.5 74.9137 51.875 73.8001 53.9659C72.6864 56.0341 71.1523 57.75 69.1978 59.1136C67.2433 60.4773 64.9819 61.4318 62.4137 61.9773V62.6591C65.2319 62.7955 67.8342 63.5568 70.2205 64.9432C72.6296 66.3295 74.5614 68.2614 76.016 70.7386C77.4705 73.1932 78.1978 76.1023 78.1978 79.4659C78.1978 83.2159 77.2433 86.5682 75.3342 89.5227C73.4251 92.4545 70.6637 94.7727 67.0501 96.4773C63.4364 98.1591 59.0501 99 53.891 99H22.5614ZM39.4364 85.3977H49.8683C53.5273 85.3977 56.2205 84.7045 57.9478 83.3182C59.6978 81.9318 60.5728 80 60.5728 77.5227C60.5728 75.7273 60.1523 74.1818 59.3114 72.8864C58.4705 71.5682 57.2773 70.5568 55.7319 69.8523C54.1864 69.125 52.3342 68.7614 50.1751 68.7614H39.4364V85.3977ZM39.4364 57.8864H48.7773C50.6183 57.8864 52.2546 57.5795 53.6864 56.9659C55.1183 56.3523 56.2319 55.4659 57.0273 54.3068C57.8455 53.1477 58.2546 51.75 58.2546 50.1136C58.2546 47.7727 57.4251 45.9318 55.766 44.5909C54.1069 43.25 51.8683 42.5795 49.0501 42.5795H39.4364V57.8864ZM95.5444 77.1818V82.2955H81.7802V77.1818H95.5444ZM84.6637 71.9545H91.6097V92.1392C91.6097 92.5653 91.676 92.911 91.8086 93.1761C91.9506 93.4318 92.1542 93.6165 92.4194 93.7301C92.6845 93.8343 93.0018 93.8864 93.3711 93.8864C93.6362 93.8864 93.9156 93.8627 94.2092 93.8153C94.5122 93.7585 94.7395 93.7112 94.891 93.6733L95.9421 98.6875C95.6107 98.7822 95.1419 98.9006 94.5359 99.0426C93.9393 99.1847 93.2243 99.2746 92.391 99.3125C90.7622 99.3883 89.3654 99.1989 88.2006 98.7443C87.0453 98.2803 86.1599 97.5606 85.5444 96.5852C84.9383 95.6098 84.6448 94.3835 84.6637 92.9062V71.9545ZM95.0884 99V77.1818H101.836V81.1591H102.063C102.461 79.7197 103.109 78.6496 104.009 77.9489C104.908 77.2386 105.955 76.8835 107.148 76.8835C107.47 76.8835 107.801 76.9072 108.142 76.9545C108.483 76.9924 108.801 77.054 109.094 77.1392V83.1761C108.763 83.0625 108.327 82.9725 107.787 82.9062C107.257 82.84 106.783 82.8068 106.367 82.8068C105.543 82.8068 104.8 82.9915 104.137 83.3608C103.483 83.7206 102.967 84.2273 102.588 84.8807C102.219 85.5246 102.034 86.2822 102.034 87.1534V99H95.0884Z" fill="#535353"/>
</g>
<defs>
<filter id="filter0_d_9_16" x="18.5615" y="27.1818" width="94.5327" height="78.2444" filterUnits="userSpaceOnUse" color-interpolation-filters="sRGB">
<feFlood flood-opacity="0" result="BackgroundImageFix"/>
<feColorMatrix in="SourceAlpha" type="matrix" values="0 0 0 0 0 0 0 0 0 0 0 0 0 0 0 0 0 0 127 0" result="hardAlpha"/>
<feOffset dy="2"/>
<feGaussianBlur stdDeviation="2"/>
<feComposite in2="hardAlpha" operator="out"/>
<feColorMatrix type="matrix" values="0 0 0 0 0 0 0 0 0 0 0 0 0 0 0 0 0 0 0.16 0"/>
<feBlend mode="normal" in2="BackgroundImageFix" result="effect1_dropShadow_9_16"/>
<feBlend mode="normal" in="SourceGraphic" in2="effect1_dropShadow_9_16" result="shape"/>
</filter>
</defs>
</svg>
